<svg width="96" height="36" viewBox="0 0 96 36" fill="none" xmlns="http://www.w3.org/2000/svg">
<rect width="96" height="36" rx="18" fill="#F3F9FB"/>
<path d="M16.3281 22H19.7256C21.4756 22 22.8291 21.0361 22.8291 19.2861C22.8291 18.1582 22.1318 17.1602 21.1201 16.873C21.79 16.5791 22.3574 15.8135 22.3574 14.8633C22.3574 13.0586 20.9629 12.3408 19.3975 12.3408H16.3281V22ZM17.5312 16.4629V13.4346H19.418C20.5322 13.4346 21.2432 13.9336 21.2432 14.9316C21.2432 15.9912 20.5049 16.4629 19.6504 16.4629H17.5312ZM17.5312 20.8516V17.5088H19.8828C20.9766 17.5088 21.6396 18.1924 21.6396 19.1562C21.6396 20.2842 20.9766 20.8516 19.7393 20.8516H17.5312ZM27.5117 22.1162C28.626 22.1162 29.4463 21.7607 30.2051 20.9473L29.3984 20.2432C28.8311 20.8447 28.2705 21.0635 27.5186 21.0635C26.2402 21.0635 25.5498 20.2432 25.4609 18.9307H30.376C30.4033 18.8281 30.4307 18.5547 30.4307 18.3018C30.4307 16.8936 29.6855 15.0547 27.3955 15.0547C25.3037 15.0547 24.2373 16.7363 24.2373 18.6162C24.2373 20.5371 25.3516 22.1162 27.5117 22.1162ZM25.4609 18.083C25.5908 16.8867 26.2334 16.0322 27.3887 16.0322C28.5371 16.0322 29.1387 16.8047 29.2549 17.6523C29.2822 17.7891 29.2822 17.9326 29.2822 18.083H25.4609ZM34.5049 15.0547C33.2539 15.0547 32.4336 15.5811 31.7705 16.4902L32.6592 17.1328C33.0693 16.4971 33.6504 16.0664 34.5186 16.0664C35.8105 16.0664 36.248 16.6885 36.2549 18.0215H34.3203C32.6387 18.0215 31.5039 18.5615 31.5039 19.9766C31.5039 21.3301 32.5156 22.1162 33.9033 22.1162C34.8398 22.1162 35.7832 21.6719 36.2686 20.7832L36.3438 22H37.3076V17.8369C37.3076 16.1416 36.2959 15.0547 34.5049 15.0547ZM34.1289 21.125C33.1992 21.125 32.6934 20.6807 32.6934 20.0176C32.6934 19.3271 33.2402 18.8691 34.3887 18.8691H36.2549V19.3135C36.0293 20.3389 35.2842 21.125 34.1289 21.125ZM41.5186 22.1162C42.3457 22.1162 43.1523 21.7402 43.6172 20.9609V22H44.7656V15.1709H43.6172V19.1084C43.6172 20.3867 42.9199 21.043 41.833 21.043C40.8008 21.043 40.2607 20.3389 40.2607 19.2109V15.1709H39.1123V19.416C39.1328 20.8789 39.8574 22.1162 41.5186 22.1162ZM49.25 22.1162C49.6738 22.1162 50.084 22.0342 50.3027 21.9521L50.2959 20.8994C50.0977 20.9883 49.7627 21.0908 49.4482 21.0908C48.8193 21.0908 48.457 20.7627 48.457 19.9014V16.1484H50.3027V15.1709H48.457V12.4502L47.3154 13.2842V15.1709H46.1738V16.1484H47.3018V20.0928C47.3018 21.3779 47.999 22.1162 49.25 22.1162ZM52.7773 24.9326H54.042L57.8428 15.1709H56.5713L54.5889 20.5439L52.4219 15.1709H51.1436L53.9736 21.8838L52.7773 24.9326Z" fill="#222222"/>
<path d="M78.25 15.375L73 20.625L67.75 15.375" stroke="#008ECC" stroke-width="1.5" stroke-linecap="round" stroke-linejoin="round"/>
</svg>
