<svg width="121" height="36" viewBox="0 0 121 36" fill="none" xmlns="http://www.w3.org/2000/svg">
<rect width="121" height="36" rx="18" fill="#F3F9FB"/>
<path d="M15.584 22H21.9346V20.8584H16.7871V17.7139H21.4697V16.5996H16.7871V13.4482H21.9346V12.3408H15.584V22ZM25.2158 22.1162C25.5439 22.1162 25.9541 22.0615 26.2686 21.9932L26.2617 21.0156C26.0635 21.0498 25.8721 21.0703 25.7354 21.0703C25.1748 21.0703 25.0586 20.7354 25.0586 20.2773V12.3408H23.8965V20.585C23.8965 21.6309 24.3066 22.1162 25.2158 22.1162ZM30.459 22.1162C31.5732 22.1162 32.3936 21.7607 33.1523 20.9473L32.3457 20.2432C31.7783 20.8447 31.2178 21.0635 30.4658 21.0635C29.1875 21.0635 28.4971 20.2432 28.4082 18.9307H33.3232C33.3506 18.8281 33.3779 18.5547 33.3779 18.3018C33.3779 16.8936 32.6328 15.0547 30.3428 15.0547C28.251 15.0547 27.1846 16.7363 27.1846 18.6162C27.1846 20.5371 28.2988 22.1162 30.459 22.1162ZM28.4082 18.083C28.5381 16.8867 29.1807 16.0322 30.3359 16.0322C31.4844 16.0322 32.0859 16.8047 32.2021 17.6523C32.2295 17.7891 32.2295 17.9326 32.2295 18.083H28.4082ZM37.6572 22.1162C38.9492 22.1162 39.9609 21.4053 40.3916 20.1816L39.3389 19.7852C39.0928 20.5645 38.4639 21.0635 37.6436 21.0635C36.2764 21.0635 35.6816 19.8809 35.6816 18.5957C35.6816 17.3311 36.2764 16.1074 37.6436 16.1074C38.457 16.1074 39.0859 16.6133 39.3594 17.4062L40.46 16.9756C39.9541 15.7041 38.9219 15.0547 37.6436 15.0547C35.5312 15.0547 34.5059 16.8047 34.5059 18.5957C34.5059 20.4893 35.6064 22.1162 37.6572 22.1162ZM44.1855 22.1162C44.6094 22.1162 45.0195 22.0342 45.2383 21.9521L45.2314 20.8994C45.0332 20.9883 44.6982 21.0908 44.3838 21.0908C43.7549 21.0908 43.3926 20.7627 43.3926 19.9014V16.1484H45.2383V15.1709H43.3926V12.4502L42.251 13.2842V15.1709H41.1094V16.1484H42.2373V20.0928C42.2373 21.3779 42.9346 22.1162 44.1855 22.1162ZM46.8379 22H47.959V18.7119C47.959 16.9004 48.9502 16.1826 49.8115 16.1826C50.085 16.1826 50.3447 16.2578 50.5771 16.3877L51.1104 15.4307C50.8027 15.1709 50.3857 15.0547 49.9824 15.0547C49.1826 15.0547 48.2939 15.5264 47.9658 16.5107V15.1709H46.8379V22ZM54.6309 22.1162C56.6338 22.1162 58.0078 20.5234 58.0078 18.5684C58.0078 16.627 56.6338 15.0547 54.6309 15.0547C52.6279 15.0547 51.2676 16.627 51.2676 18.5684C51.2676 20.5234 52.6279 22.1162 54.6309 22.1162ZM54.6309 21.1113C53.2295 21.1113 52.4707 19.9561 52.4707 18.5684C52.4707 17.1875 53.2295 16.0596 54.6309 16.0596C56.0391 16.0596 56.8047 17.1943 56.8047 18.5684C56.8047 19.9492 56.0391 21.1113 54.6309 21.1113ZM59.7031 22H60.8584V18.0625C60.8584 16.7773 61.5488 16.1279 62.6357 16.1279C63.668 16.1279 64.208 16.832 64.208 17.96V22H65.3633V17.748C65.3428 16.2852 64.6113 15.0547 62.9502 15.0547C62.123 15.0547 61.3301 15.4307 60.8584 16.21V15.1709H59.7031V22ZM67.4551 13.79H68.665V12.3408H67.4551V13.79ZM67.4824 22H68.6377V15.1709H67.4824V22ZM73.5049 22.1162C74.7969 22.1162 75.8086 21.4053 76.2393 20.1816L75.1865 19.7852C74.9404 20.5645 74.3115 21.0635 73.4912 21.0635C72.124 21.0635 71.5293 19.8809 71.5293 18.5957C71.5293 17.3311 72.124 16.1074 73.4912 16.1074C74.3047 16.1074 74.9336 16.6133 75.207 17.4062L76.3076 16.9756C75.8018 15.7041 74.7695 15.0547 73.4912 15.0547C71.3789 15.0547 70.3535 16.8047 70.3535 18.5957C70.3535 20.4893 71.4541 22.1162 73.5049 22.1162ZM79.8828 22.1162C81.2021 22.1162 82.3916 21.4189 82.3916 19.9834C82.3916 17.4062 78.5703 18.3359 78.5703 16.8594C78.5703 16.3467 79.0557 15.9775 79.8281 15.9775C80.6279 15.9775 81.1338 16.4355 81.4346 16.9824L82.3301 16.4971C81.8379 15.5879 80.9766 15.0547 79.8691 15.0547C78.5566 15.0547 77.4629 15.7246 77.4629 17.0098C77.4629 19.4639 81.25 18.418 81.25 20.0381C81.25 20.6396 80.7715 21.1455 79.8281 21.1455C78.8232 21.1455 78.249 20.5166 78.0166 19.8672L77.0801 20.2773C77.4219 21.3164 78.502 22.1162 79.8828 22.1162Z" fill="#222222"/>
<path d="M103.25 15.375L98 20.625L92.75 15.375" stroke="#008ECC" stroke-width="1.5" stroke-linecap="round" stroke-linejoin="round"/>
</svg>
