<svg width="101" height="36" viewBox="0 0 101 36" fill="none" xmlns="http://www.w3.org/2000/svg">
<rect width="101" height="36" rx="18" fill="#F3F9FB"/>
<path d="M15.9414 22H17.1445V17.7139H21.9229V16.5996H17.1445V13.4482H22.5723V12.3408H15.9414V22ZM26.0928 15.0547C24.8418 15.0547 24.0215 15.5811 23.3584 16.4902L24.2471 17.1328C24.6572 16.4971 25.2383 16.0664 26.1064 16.0664C27.3984 16.0664 27.8359 16.6885 27.8428 18.0215H25.9082C24.2266 18.0215 23.0918 18.5615 23.0918 19.9766C23.0918 21.3301 24.1035 22.1162 25.4912 22.1162C26.4277 22.1162 27.3711 21.6719 27.8564 20.7832L27.9316 22H28.8955V17.8369C28.8955 16.1416 27.8838 15.0547 26.0928 15.0547ZM25.7168 21.125C24.7871 21.125 24.2812 20.6807 24.2812 20.0176C24.2812 19.3271 24.8281 18.8691 25.9766 18.8691H27.8428V19.3135C27.6172 20.3389 26.8721 21.125 25.7168 21.125ZM33.0312 22.1162C34.3506 22.1162 35.54 21.4189 35.54 19.9834C35.54 17.4062 31.7188 18.3359 31.7188 16.8594C31.7188 16.3467 32.2041 15.9775 32.9766 15.9775C33.7764 15.9775 34.2822 16.4355 34.583 16.9824L35.4785 16.4971C34.9863 15.5879 34.125 15.0547 33.0176 15.0547C31.7051 15.0547 30.6113 15.7246 30.6113 17.0098C30.6113 19.4639 34.3984 18.418 34.3984 20.0381C34.3984 20.6396 33.9199 21.1455 32.9766 21.1455C31.9717 21.1455 31.3975 20.5166 31.165 19.8672L30.2285 20.2773C30.5703 21.3164 31.6504 22.1162 33.0312 22.1162ZM37.3105 22H38.4863V18.2471C38.4863 17.0029 39.1221 16.1074 40.291 16.1074C41.4189 16.1074 41.8154 16.8662 41.8154 17.96V22H42.9912V17.748C42.9707 16.2852 42.2188 15.0547 40.5576 15.0547C39.7305 15.0547 38.9512 15.4307 38.4863 16.21V12.3408H37.3105V22ZM45.0762 13.79H46.2861V12.3408H45.0762V13.79ZM45.1035 22H46.2588V15.1709H45.1035V22ZM51.2969 22.1162C53.2998 22.1162 54.6738 20.5234 54.6738 18.5684C54.6738 16.627 53.2998 15.0547 51.2969 15.0547C49.2939 15.0547 47.9336 16.627 47.9336 18.5684C47.9336 20.5234 49.2939 22.1162 51.2969 22.1162ZM51.2969 21.1113C49.8955 21.1113 49.1367 19.9561 49.1367 18.5684C49.1367 17.1875 49.8955 16.0596 51.2969 16.0596C52.7051 16.0596 53.4707 17.1943 53.4707 18.5684C53.4707 19.9492 52.7051 21.1113 51.2969 21.1113ZM56.3691 22H57.5244V18.0625C57.5244 16.7773 58.2148 16.1279 59.3018 16.1279C60.334 16.1279 60.874 16.832 60.874 17.96V22H62.0293V17.748C62.0088 16.2852 61.2773 15.0547 59.6162 15.0547C58.7891 15.0547 57.9961 15.4307 57.5244 16.21V15.1709H56.3691V22Z" fill="#222222"/>
<path d="M83.25 15.375L78 20.625L72.75 15.375" stroke="#008ECC" stroke-width="1.5" stroke-linecap="round" stroke-linejoin="round"/>
</svg>
