<svg width="113" height="36" viewBox="0 0 113 36" fill="none" xmlns="http://www.w3.org/2000/svg">
<rect width="113" height="36" rx="18" fill="#008ECC"/>
<path d="M20.1279 22.1162C21.5635 22.1162 22.6504 21.4736 23.2451 20.3867L23.3477 22H24.3047V16.9414H20.8252V17.9189H23.1221L23.0947 18.5479C22.8623 20.1748 21.7617 21.0361 20.1279 21.0361C17.8174 21.0361 16.8467 19.2861 16.8467 17.1123C16.8467 14.9111 17.9131 13.2705 20.1484 13.2705C21.584 13.2705 22.6094 13.9131 23.1084 15.3281L24.1816 14.877C23.4502 13.127 22.0625 12.2109 20.1621 12.2109C17.127 12.2109 15.6504 14.3643 15.6504 17.1602C15.6504 19.9492 17.1475 22.1162 20.1279 22.1162ZM26.5332 22H27.6543V18.7119C27.6543 16.9004 28.6455 16.1826 29.5068 16.1826C29.7803 16.1826 30.04 16.2578 30.2725 16.3877L30.8057 15.4307C30.498 15.1709 30.0811 15.0547 29.6777 15.0547C28.8779 15.0547 27.9893 15.5264 27.6611 16.5107V15.1709H26.5332V22ZM34.3262 22.1162C36.3291 22.1162 37.7031 20.5234 37.7031 18.5684C37.7031 16.627 36.3291 15.0547 34.3262 15.0547C32.3232 15.0547 30.9629 16.627 30.9629 18.5684C30.9629 20.5234 32.3232 22.1162 34.3262 22.1162ZM34.3262 21.1113C32.9248 21.1113 32.166 19.9561 32.166 18.5684C32.166 17.1875 32.9248 16.0596 34.3262 16.0596C35.7344 16.0596 36.5 17.1943 36.5 18.5684C36.5 19.9492 35.7344 21.1113 34.3262 21.1113ZM41.9756 22.1162C43.2676 22.1162 44.2793 21.4053 44.71 20.1816L43.6572 19.7852C43.4111 20.5645 42.7822 21.0635 41.9619 21.0635C40.5947 21.0635 40 19.8809 40 18.5957C40 17.3311 40.5947 16.1074 41.9619 16.1074C42.7754 16.1074 43.4043 16.6133 43.6777 17.4062L44.7783 16.9756C44.2725 15.7041 43.2402 15.0547 41.9619 15.0547C39.8496 15.0547 38.8242 16.8047 38.8242 18.5957C38.8242 20.4893 39.9248 22.1162 41.9756 22.1162ZM48.9551 22.1162C50.0693 22.1162 50.8896 21.7607 51.6484 20.9473L50.8418 20.2432C50.2744 20.8447 49.7139 21.0635 48.9619 21.0635C47.6836 21.0635 46.9932 20.2432 46.9043 18.9307H51.8193C51.8467 18.8281 51.874 18.5547 51.874 18.3018C51.874 16.8936 51.1289 15.0547 48.8389 15.0547C46.7471 15.0547 45.6807 16.7363 45.6807 18.6162C45.6807 20.5371 46.7949 22.1162 48.9551 22.1162ZM46.9043 18.083C47.0342 16.8867 47.6768 16.0322 48.832 16.0322C49.9805 16.0322 50.582 16.8047 50.6982 17.6523C50.7256 17.7891 50.7256 17.9326 50.7256 18.083H46.9043ZM53.5762 22H54.6973V18.7119C54.6973 16.9004 55.6885 16.1826 56.5498 16.1826C56.8232 16.1826 57.083 16.2578 57.3154 16.3877L57.8486 15.4307C57.541 15.1709 57.124 15.0547 56.7207 15.0547C55.9209 15.0547 55.0322 15.5264 54.7041 16.5107V15.1709H53.5762V22ZM59.0449 13.79H60.2549V12.3408H59.0449V13.79ZM59.0723 22H60.2275V15.1709H59.0723V22ZM65.2246 22.1162C66.3389 22.1162 67.1592 21.7607 67.918 20.9473L67.1113 20.2432C66.5439 20.8447 65.9834 21.0635 65.2314 21.0635C63.9531 21.0635 63.2627 20.2432 63.1738 18.9307H68.0889C68.1162 18.8281 68.1436 18.5547 68.1436 18.3018C68.1436 16.8936 67.3984 15.0547 65.1084 15.0547C63.0166 15.0547 61.9502 16.7363 61.9502 18.6162C61.9502 20.5371 63.0645 22.1162 65.2246 22.1162ZM63.1738 18.083C63.3037 16.8867 63.9463 16.0322 65.1016 16.0322C66.25 16.0322 66.8516 16.8047 66.9678 17.6523C66.9951 17.7891 66.9951 17.9326 66.9951 18.083H63.1738ZM71.8828 22.1162C73.2021 22.1162 74.3916 21.4189 74.3916 19.9834C74.3916 17.4062 70.5703 18.3359 70.5703 16.8594C70.5703 16.3467 71.0557 15.9775 71.8281 15.9775C72.6279 15.9775 73.1338 16.4355 73.4346 16.9824L74.3301 16.4971C73.8379 15.5879 72.9766 15.0547 71.8691 15.0547C70.5566 15.0547 69.4629 15.7246 69.4629 17.0098C69.4629 19.4639 73.25 18.418 73.25 20.0381C73.25 20.6396 72.7715 21.1455 71.8281 21.1455C70.8232 21.1455 70.249 20.5166 70.0166 19.8672L69.0801 20.2773C69.4219 21.3164 70.502 22.1162 71.8828 22.1162Z" fill="white"/>
<path d="M95.25 15.375L90 20.625L84.75 15.375" stroke="#F3F9FB" stroke-width="1.5" stroke-linecap="round" stroke-linejoin="round"/>
</svg>
