<svg width="153" height="36" viewBox="0 0 153 36" fill="none" xmlns="http://www.w3.org/2000/svg">
<rect width="153" height="36" rx="18" fill="#F3F9FB"/>
<path d="M15.6602 22H16.8633V17.707H21.6553V22H22.8584V12.3408H21.6553V16.5928H16.8633V12.3408H15.6602V22ZM28.1699 22.1162C30.1729 22.1162 31.5469 20.5234 31.5469 18.5684C31.5469 16.627 30.1729 15.0547 28.1699 15.0547C26.167 15.0547 24.8066 16.627 24.8066 18.5684C24.8066 20.5234 26.167 22.1162 28.1699 22.1162ZM28.1699 21.1113C26.7686 21.1113 26.0098 19.9561 26.0098 18.5684C26.0098 17.1875 26.7686 16.0596 28.1699 16.0596C29.5781 16.0596 30.3438 17.1943 30.3438 18.5684C30.3438 19.9492 29.5781 21.1113 28.1699 21.1113ZM33.249 22H34.4111V18.0488C34.4111 16.9551 35.0605 16.1348 36.127 16.1348C37.1592 16.1348 37.5693 16.8594 37.5693 17.9395V22H38.7246V18.0488C38.7246 16.9551 39.3809 16.1348 40.4336 16.1348C41.5 16.1348 41.8828 16.8867 41.8828 18.1104V22H43.0449V17.9736C43.0449 16.3262 42.3271 15.0547 40.6592 15.0547C39.7021 15.0547 38.875 15.499 38.4238 16.4629C38.0889 15.458 37.2754 15.0547 36.3525 15.0547C35.5049 15.0547 34.7598 15.4102 34.3633 16.2441V15.1709H33.2422L33.249 22ZM47.8574 22.1162C48.9717 22.1162 49.792 21.7607 50.5508 20.9473L49.7441 20.2432C49.1768 20.8447 48.6162 21.0635 47.8643 21.0635C46.5859 21.0635 45.8955 20.2432 45.8066 18.9307H50.7217C50.749 18.8281 50.7764 18.5547 50.7764 18.3018C50.7764 16.8936 50.0312 15.0547 47.7412 15.0547C45.6494 15.0547 44.583 16.7363 44.583 18.6162C44.583 20.5371 45.6973 22.1162 47.8574 22.1162ZM45.8066 18.083C45.9365 16.8867 46.5791 16.0322 47.7344 16.0322C48.8828 16.0322 49.4844 16.8047 49.6006 17.6523C49.6279 17.7891 49.6279 17.9326 49.6279 18.083H45.8066ZM63.1768 21.7402L61.7754 20.1338C62.2744 19.375 62.582 18.4385 62.6504 17.3926L61.5225 17.2832C61.4951 18.0146 61.3174 18.6982 61.0234 19.2793L59.0957 17.0713C60.1826 16.4424 61.1602 15.7109 61.1602 14.4531C61.1602 13.2021 60.0801 12.2451 58.7402 12.2451C57.4072 12.2451 56.1836 13.1064 56.1836 14.46C56.1836 15.499 57.0312 16.4014 57.4346 16.8457C56.2383 17.4951 55.0898 18.2812 55.0898 19.7783C55.0898 21.2754 56.375 22.123 58.1113 22.123C59.2803 22.123 60.292 21.6992 61.0645 20.9746L62.3564 22.4717L63.1768 21.7402ZM57.3047 14.4805C57.3047 13.667 57.9404 13.1543 58.7471 13.1543C59.5674 13.1543 60.0869 13.749 60.0869 14.4736C60.0869 15.3213 59.3008 15.8408 58.3506 16.3535C58.0293 15.9707 57.3047 15.1572 57.3047 14.4805ZM58.084 21.1387C56.9492 21.1387 56.2109 20.6533 56.2109 19.7988C56.2109 18.7871 57.1201 18.1787 58.1592 17.5977L60.3877 20.1816C59.8066 20.7764 59.0273 21.1387 58.084 21.1387ZM68.2695 22H69.4727V19.3613L71.7559 17.0098L75.0029 22H76.4932L72.5898 16.1963L76.3428 12.3408H74.7227L69.4727 17.8916V12.3408H68.2695V22ZM77.9629 13.79H79.1729V12.3408H77.9629V13.79ZM77.9902 22H79.1455V15.1709H77.9902V22ZM83.623 22.1162C84.0469 22.1162 84.457 22.0342 84.6758 21.9521L84.6689 20.8994C84.4707 20.9883 84.1357 21.0908 83.8213 21.0908C83.1924 21.0908 82.8301 20.7627 82.8301 19.9014V16.1484H84.6758V15.1709H82.8301V12.4502L81.6885 13.2842V15.1709H80.5469V16.1484H81.6748V20.0928C81.6748 21.3779 82.3721 22.1162 83.623 22.1162ZM88.8936 22.1162C90.1855 22.1162 91.1973 21.4053 91.6279 20.1816L90.5752 19.7852C90.3291 20.5645 89.7002 21.0635 88.8799 21.0635C87.5127 21.0635 86.918 19.8809 86.918 18.5957C86.918 17.3311 87.5127 16.1074 88.8799 16.1074C89.6934 16.1074 90.3223 16.6133 90.5957 17.4062L91.6963 16.9756C91.1904 15.7041 90.1582 15.0547 88.8799 15.0547C86.7676 15.0547 85.7422 16.8047 85.7422 18.5957C85.7422 20.4893 86.8428 22.1162 88.8936 22.1162ZM93.248 22H94.4238V18.2471C94.4238 17.0029 95.0596 16.1074 96.2285 16.1074C97.3564 16.1074 97.7529 16.8662 97.7529 17.96V22H98.9287V17.748C98.9082 16.2852 98.1562 15.0547 96.4951 15.0547C95.668 15.0547 94.8887 15.4307 94.4238 16.21V12.3408H93.248V22ZM103.748 22.1162C104.862 22.1162 105.683 21.7607 106.441 20.9473L105.635 20.2432C105.067 20.8447 104.507 21.0635 103.755 21.0635C102.477 21.0635 101.786 20.2432 101.697 18.9307H106.612C106.64 18.8281 106.667 18.5547 106.667 18.3018C106.667 16.8936 105.922 15.0547 103.632 15.0547C101.54 15.0547 100.474 16.7363 100.474 18.6162C100.474 20.5371 101.588 22.1162 103.748 22.1162ZM101.697 18.083C101.827 16.8867 102.47 16.0322 103.625 16.0322C104.773 16.0322 105.375 16.8047 105.491 17.6523C105.519 17.7891 105.519 17.9326 105.519 18.083H101.697ZM108.369 22H109.524V18.0625C109.524 16.7773 110.215 16.1279 111.302 16.1279C112.334 16.1279 112.874 16.832 112.874 17.96V22H114.029V17.748C114.009 16.2852 113.277 15.0547 111.616 15.0547C110.789 15.0547 109.996 15.4307 109.524 16.21V15.1709H108.369V22Z" fill="#222222"/>
<path d="M135.25 15.375L130 20.625L124.75 15.375" stroke="#008ECC" stroke-width="1.5" stroke-linecap="round" stroke-linejoin="round"/>
</svg>
