<svg width="176" height="36" viewBox="0 0 176 36" fill="none" xmlns="http://www.w3.org/2000/svg">
<rect width="176" height="36" rx="18" fill="#F3F9FB"/>
<path d="M16.1289 22H17.332V17.707H22.124V22H23.3271V12.3408H22.124V16.5928H17.332V12.3408H16.1289V22ZM28.6387 22.1162C30.6416 22.1162 32.0156 20.5234 32.0156 18.5684C32.0156 16.627 30.6416 15.0547 28.6387 15.0547C26.6357 15.0547 25.2754 16.627 25.2754 18.5684C25.2754 20.5234 26.6357 22.1162 28.6387 22.1162ZM28.6387 21.1113C27.2373 21.1113 26.4785 19.9561 26.4785 18.5684C26.4785 17.1875 27.2373 16.0596 28.6387 16.0596C30.0469 16.0596 30.8125 17.1943 30.8125 18.5684C30.8125 19.9492 30.0469 21.1113 28.6387 21.1113ZM33.7178 22H34.8799V18.0488C34.8799 16.9551 35.5293 16.1348 36.5957 16.1348C37.6279 16.1348 38.0381 16.8594 38.0381 17.9395V22H39.1934V18.0488C39.1934 16.9551 39.8496 16.1348 40.9023 16.1348C41.9688 16.1348 42.3516 16.8867 42.3516 18.1104V22H43.5137V17.9736C43.5137 16.3262 42.7959 15.0547 41.1279 15.0547C40.1709 15.0547 39.3438 15.499 38.8926 16.4629C38.5576 15.458 37.7441 15.0547 36.8213 15.0547C35.9736 15.0547 35.2285 15.4102 34.832 16.2441V15.1709H33.7109L33.7178 22ZM48.3262 22.1162C49.4404 22.1162 50.2607 21.7607 51.0195 20.9473L50.2129 20.2432C49.6455 20.8447 49.085 21.0635 48.333 21.0635C47.0547 21.0635 46.3643 20.2432 46.2754 18.9307H51.1904C51.2178 18.8281 51.2451 18.5547 51.2451 18.3018C51.2451 16.8936 50.5 15.0547 48.21 15.0547C46.1182 15.0547 45.0518 16.7363 45.0518 18.6162C45.0518 20.5371 46.166 22.1162 48.3262 22.1162ZM46.2754 18.083C46.4053 16.8867 47.0479 16.0322 48.2031 16.0322C49.3516 16.0322 49.9531 16.8047 50.0693 17.6523C50.0967 17.7891 50.0967 17.9326 50.0967 18.083H46.2754ZM56.748 22H57.9512V12.3408H56.748V22ZM60.5557 22H61.7178V18.0488C61.7178 16.9551 62.3672 16.1348 63.4336 16.1348C64.4658 16.1348 64.876 16.8594 64.876 17.9395V22H66.0312V18.0488C66.0312 16.9551 66.6875 16.1348 67.7402 16.1348C68.8066 16.1348 69.1895 16.8867 69.1895 18.1104V22H70.3516V17.9736C70.3516 16.3262 69.6338 15.0547 67.9658 15.0547C67.0088 15.0547 66.1816 15.499 65.7305 16.4629C65.3955 15.458 64.582 15.0547 63.6592 15.0547C62.8115 15.0547 62.0664 15.4102 61.6699 16.2441V15.1709H60.5488L60.5557 22ZM72.4707 24.8301H73.667V20.7695C74.1113 21.6309 74.9658 22.1162 75.9297 22.1162C77.8027 22.1162 78.8486 20.5166 78.8486 18.5889C78.8486 16.668 77.8027 15.0547 75.9502 15.0547C74.9932 15.0547 74.1113 15.54 73.667 16.4014V15.1709H72.4707V24.8301ZM75.6699 21.0635C74.3369 21.0635 73.5645 19.9902 73.5645 18.5889C73.5645 17.1807 74.3369 16.1279 75.6699 16.1279C77.0029 16.1279 77.6865 17.2012 77.6865 18.5889C77.6865 19.9766 77.0029 21.0635 75.6699 21.0635ZM80.6055 22H81.7266V18.7119C81.7266 16.9004 82.7178 16.1826 83.5791 16.1826C83.8525 16.1826 84.1123 16.2578 84.3447 16.3877L84.8779 15.4307C84.5703 15.1709 84.1533 15.0547 83.75 15.0547C82.9502 15.0547 82.0615 15.5264 81.7334 16.5107V15.1709H80.6055V22ZM88.3984 22.1162C90.4014 22.1162 91.7754 20.5234 91.7754 18.5684C91.7754 16.627 90.4014 15.0547 88.3984 15.0547C86.3955 15.0547 85.0352 16.627 85.0352 18.5684C85.0352 20.5234 86.3955 22.1162 88.3984 22.1162ZM88.3984 21.1113C86.9971 21.1113 86.2383 19.9561 86.2383 18.5684C86.2383 17.1875 86.9971 16.0596 88.3984 16.0596C89.8066 16.0596 90.5723 17.1943 90.5723 18.5684C90.5723 19.9492 89.8066 21.1113 88.3984 21.1113ZM95.0361 22H96.0068L98.8027 15.1709H97.5381L95.5215 20.5166L93.5117 15.1709H92.2471L95.0361 22ZM102.59 22.1162C103.704 22.1162 104.524 21.7607 105.283 20.9473L104.477 20.2432C103.909 20.8447 103.349 21.0635 102.597 21.0635C101.318 21.0635 100.628 20.2432 100.539 18.9307H105.454C105.481 18.8281 105.509 18.5547 105.509 18.3018C105.509 16.8936 104.764 15.0547 102.474 15.0547C100.382 15.0547 99.3154 16.7363 99.3154 18.6162C99.3154 20.5371 100.43 22.1162 102.59 22.1162ZM100.539 18.083C100.669 16.8867 101.312 16.0322 102.467 16.0322C103.615 16.0322 104.217 16.8047 104.333 17.6523C104.36 17.7891 104.36 17.9326 104.36 18.083H100.539ZM107.218 22H108.38V18.0488C108.38 16.9551 109.029 16.1348 110.096 16.1348C111.128 16.1348 111.538 16.8594 111.538 17.9395V22H112.693V18.0488C112.693 16.9551 113.35 16.1348 114.402 16.1348C115.469 16.1348 115.852 16.8867 115.852 18.1104V22H117.014V17.9736C117.014 16.3262 116.296 15.0547 114.628 15.0547C113.671 15.0547 112.844 15.499 112.393 16.4629C112.058 15.458 111.244 15.0547 110.321 15.0547C109.474 15.0547 108.729 15.4102 108.332 16.2441V15.1709H107.211L107.218 22ZM121.826 22.1162C122.94 22.1162 123.761 21.7607 124.52 20.9473L123.713 20.2432C123.146 20.8447 122.585 21.0635 121.833 21.0635C120.555 21.0635 119.864 20.2432 119.775 18.9307H124.69C124.718 18.8281 124.745 18.5547 124.745 18.3018C124.745 16.8936 124 15.0547 121.71 15.0547C119.618 15.0547 118.552 16.7363 118.552 18.6162C118.552 20.5371 119.666 22.1162 121.826 22.1162ZM119.775 18.083C119.905 16.8867 120.548 16.0322 121.703 16.0322C122.852 16.0322 123.453 16.8047 123.569 17.6523C123.597 17.7891 123.597 17.9326 123.597 18.083H119.775ZM126.447 22H127.603V18.0625C127.603 16.7773 128.293 16.1279 129.38 16.1279C130.412 16.1279 130.952 16.832 130.952 17.96V22H132.107V17.748C132.087 16.2852 131.355 15.0547 129.694 15.0547C128.867 15.0547 128.074 15.4307 127.603 16.21V15.1709H126.447V22ZM136.414 22.1162C136.838 22.1162 137.248 22.0342 137.467 21.9521L137.46 20.8994C137.262 20.9883 136.927 21.0908 136.612 21.0908C135.983 21.0908 135.621 20.7627 135.621 19.9014V16.1484H137.467V15.1709H135.621V12.4502L134.479 13.2842V15.1709H133.338V16.1484H134.466V20.0928C134.466 21.3779 135.163 22.1162 136.414 22.1162Z" fill="#222222"/>
<path d="M158.25 15.375L153 20.625L147.75 15.375" stroke="#008ECC" stroke-width="1.5" stroke-linecap="round" stroke-linejoin="round"/>
</svg>
