<svg width="148" height="36" viewBox="0 0 148 36" fill="none" xmlns="http://www.w3.org/2000/svg">
<rect width="148" height="36" rx="18" fill="#F3F9FB"/>
<path d="M16.4297 22H17.626V17.8438H19.2051C21.1807 17.8438 22.5137 16.873 22.5137 15.1162C22.5137 13.3594 21.1602 12.3408 19.2051 12.3408H16.4297V22ZM17.626 16.7158V13.4688H19.2051C20.6064 13.4688 21.3174 14.0771 21.3174 15.1162C21.3174 16.1553 20.6338 16.7158 19.2051 16.7158H17.626ZM24.0039 22H25.125V18.7119C25.125 16.9004 26.1162 16.1826 26.9775 16.1826C27.251 16.1826 27.5107 16.2578 27.7432 16.3877L28.2764 15.4307C27.9688 15.1709 27.5518 15.0547 27.1484 15.0547C26.3486 15.0547 25.46 15.5264 25.1318 16.5107V15.1709H24.0039V22ZM31.7559 22.1162C32.8701 22.1162 33.6904 21.7607 34.4492 20.9473L33.6426 20.2432C33.0752 20.8447 32.5146 21.0635 31.7627 21.0635C30.4844 21.0635 29.7939 20.2432 29.7051 18.9307H34.6201C34.6475 18.8281 34.6748 18.5547 34.6748 18.3018C34.6748 16.8936 33.9297 15.0547 31.6396 15.0547C29.5479 15.0547 28.4814 16.7363 28.4814 18.6162C28.4814 20.5371 29.5957 22.1162 31.7559 22.1162ZM29.7051 18.083C29.835 16.8867 30.4775 16.0322 31.6328 16.0322C32.7812 16.0322 33.3828 16.8047 33.499 17.6523C33.5264 17.7891 33.5264 17.9326 33.5264 18.083H29.7051ZM36.3838 22H37.5459V18.0488C37.5459 16.9551 38.1953 16.1348 39.2617 16.1348C40.2939 16.1348 40.7041 16.8594 40.7041 17.9395V22H41.8594V18.0488C41.8594 16.9551 42.5156 16.1348 43.5684 16.1348C44.6348 16.1348 45.0176 16.8867 45.0176 18.1104V22H46.1797V17.9736C46.1797 16.3262 45.4619 15.0547 43.7939 15.0547C42.8369 15.0547 42.0098 15.499 41.5586 16.4629C41.2236 15.458 40.4102 15.0547 39.4873 15.0547C38.6396 15.0547 37.8945 15.4102 37.498 16.2441V15.1709H36.377L36.3838 22ZM48.2578 13.79H49.4678V12.3408H48.2578V13.79ZM48.2852 22H49.4404V15.1709H48.2852V22ZM53.9521 22.1162C54.7793 22.1162 55.5859 21.7402 56.0508 20.9609V22H57.1992V15.1709H56.0508V19.1084C56.0508 20.3867 55.3535 21.043 54.2666 21.043C53.2344 21.043 52.6943 20.3389 52.6943 19.2109V15.1709H51.5459V19.416C51.5664 20.8789 52.291 22.1162 53.9521 22.1162ZM59.5029 22H60.665V18.0488C60.665 16.9551 61.3145 16.1348 62.3809 16.1348C63.4131 16.1348 63.8232 16.8594 63.8232 17.9395V22H64.9785V18.0488C64.9785 16.9551 65.6348 16.1348 66.6875 16.1348C67.7539 16.1348 68.1367 16.8867 68.1367 18.1104V22H69.2988V17.9736C69.2988 16.3262 68.5811 15.0547 66.9131 15.0547C65.9561 15.0547 65.1289 15.499 64.6777 16.4629C64.3428 15.458 63.5293 15.0547 62.6064 15.0547C61.7588 15.0547 61.0137 15.4102 60.6172 16.2441V15.1709H59.4961L59.5029 22ZM75.2051 22H76.4082V17.7139H81.1865V16.5996H76.4082V13.4482H81.8359V12.3408H75.2051V22ZM83.0391 22H84.1602V18.7119C84.1602 16.9004 85.1514 16.1826 86.0127 16.1826C86.2861 16.1826 86.5459 16.2578 86.7783 16.3877L87.3115 15.4307C87.0039 15.1709 86.5869 15.0547 86.1836 15.0547C85.3838 15.0547 84.4951 15.5264 84.167 16.5107V15.1709H83.0391V22ZM90.7705 22.1162C91.5977 22.1162 92.4043 21.7402 92.8691 20.9609V22H94.0176V15.1709H92.8691V19.1084C92.8691 20.3867 92.1719 21.043 91.085 21.043C90.0527 21.043 89.5127 20.3389 89.5127 19.2109V15.1709H88.3643V19.416C88.3848 20.8789 89.1094 22.1162 90.7705 22.1162ZM96.2871 13.79H97.4971V12.3408H96.2871V13.79ZM96.3145 22H97.4697V15.1709H96.3145V22ZM101.947 22.1162C102.371 22.1162 102.781 22.0342 103 21.9521L102.993 20.8994C102.795 20.9883 102.46 21.0908 102.146 21.0908C101.517 21.0908 101.154 20.7627 101.154 19.9014V16.1484H103V15.1709H101.154V12.4502L100.013 13.2842V15.1709H98.8711V16.1484H99.999V20.0928C99.999 21.3779 100.696 22.1162 101.947 22.1162ZM106.883 22.1162C108.202 22.1162 109.392 21.4189 109.392 19.9834C109.392 17.4062 105.57 18.3359 105.57 16.8594C105.57 16.3467 106.056 15.9775 106.828 15.9775C107.628 15.9775 108.134 16.4355 108.435 16.9824L109.33 16.4971C108.838 15.5879 107.977 15.0547 106.869 15.0547C105.557 15.0547 104.463 15.7246 104.463 17.0098C104.463 19.4639 108.25 18.418 108.25 20.0381C108.25 20.6396 107.771 21.1455 106.828 21.1455C105.823 21.1455 105.249 20.5166 105.017 19.8672L104.08 20.2773C104.422 21.3164 105.502 22.1162 106.883 22.1162Z" fill="#222222"/>
<path d="M130.25 15.375L125 20.625L119.75 15.375" stroke="#008ECC" stroke-width="1.5" stroke-linecap="round" stroke-linejoin="round"/>
</svg>
