<svg width="195" height="36" viewBox="0 0 195 36" fill="none" xmlns="http://www.w3.org/2000/svg">
<rect width="195" height="36" rx="18" fill="#F3F9FB"/>
<path d="M18.3877 22.0957C20.1719 22.0957 21.5801 21.002 21.5801 19.293C21.5801 16.1006 16.7129 16.832 16.7129 14.6992C16.7129 13.8789 17.3965 13.2979 18.292 13.2979C19.1055 13.2979 19.7275 13.6807 20.1377 14.4395L21.1357 13.8242C20.5068 12.71 19.5156 12.2246 18.333 12.2246C16.7812 12.2246 15.5098 13.1816 15.5098 14.7539C15.5098 17.8164 20.377 17.0371 20.377 19.3955C20.377 20.3184 19.625 21.0225 18.4082 21.0225C17.2051 21.0225 16.2754 20.373 16.1045 19.0811L14.915 19.3818C15.209 21.1592 16.7061 22.0957 18.3877 22.0957ZM23.084 24.8301H24.2803V20.7695C24.7246 21.6309 25.5791 22.1162 26.543 22.1162C28.416 22.1162 29.4619 20.5166 29.4619 18.5889C29.4619 16.668 28.416 15.0547 26.5635 15.0547C25.6064 15.0547 24.7246 15.54 24.2803 16.4014V15.1709H23.084V24.8301ZM26.2832 21.0635C24.9502 21.0635 24.1777 19.9902 24.1777 18.5889C24.1777 17.1807 24.9502 16.1279 26.2832 16.1279C27.6162 16.1279 28.2998 17.2012 28.2998 18.5889C28.2998 19.9766 27.6162 21.0635 26.2832 21.0635ZM33.9668 22.1162C35.9697 22.1162 37.3438 20.5234 37.3438 18.5684C37.3438 16.627 35.9697 15.0547 33.9668 15.0547C31.9639 15.0547 30.6035 16.627 30.6035 18.5684C30.6035 20.5234 31.9639 22.1162 33.9668 22.1162ZM33.9668 21.1113C32.5654 21.1113 31.8066 19.9561 31.8066 18.5684C31.8066 17.1875 32.5654 16.0596 33.9668 16.0596C35.375 16.0596 36.1406 17.1943 36.1406 18.5684C36.1406 19.9492 35.375 21.1113 33.9668 21.1113ZM39.0391 22H40.1602V18.7119C40.1602 16.9004 41.1514 16.1826 42.0127 16.1826C42.2861 16.1826 42.5459 16.2578 42.7783 16.3877L43.3115 15.4307C43.0039 15.1709 42.5869 15.0547 42.1836 15.0547C41.3838 15.0547 40.4951 15.5264 40.167 16.5107V15.1709H39.0391V22ZM47.0234 22.1162C47.4473 22.1162 47.8574 22.0342 48.0762 21.9521L48.0693 20.8994C47.8711 20.9883 47.5361 21.0908 47.2217 21.0908C46.5928 21.0908 46.2305 20.7627 46.2305 19.9014V16.1484H48.0762V15.1709H46.2305V12.4502L45.0889 13.2842V15.1709H43.9473V16.1484H45.0752V20.0928C45.0752 21.3779 45.7725 22.1162 47.0234 22.1162ZM51.959 22.1162C53.2783 22.1162 54.4678 21.4189 54.4678 19.9834C54.4678 17.4062 50.6465 18.3359 50.6465 16.8594C50.6465 16.3467 51.1318 15.9775 51.9043 15.9775C52.7041 15.9775 53.21 16.4355 53.5107 16.9824L54.4062 16.4971C53.9141 15.5879 53.0527 15.0547 51.9453 15.0547C50.6328 15.0547 49.5391 15.7246 49.5391 17.0098C49.5391 19.4639 53.3262 18.418 53.3262 20.0381C53.3262 20.6396 52.8477 21.1455 51.9043 21.1455C50.8994 21.1455 50.3252 20.5166 50.0928 19.8672L49.1562 20.2773C49.498 21.3164 50.5781 22.1162 51.959 22.1162ZM56.1084 24.126H56.8945L58.6992 20.2021H57.3662L56.1084 24.126ZM66.6016 22H67.8047V13.4209H71.0586V12.3408H63.3477V13.4209H66.6016V22ZM73.957 22.1162C75.96 22.1162 77.334 20.5234 77.334 18.5684C77.334 16.627 75.96 15.0547 73.957 15.0547C71.9541 15.0547 70.5938 16.627 70.5938 18.5684C70.5938 20.5234 71.9541 22.1162 73.957 22.1162ZM73.957 21.1113C72.5557 21.1113 71.7969 19.9561 71.7969 18.5684C71.7969 17.1875 72.5557 16.0596 73.957 16.0596C75.3652 16.0596 76.1309 17.1943 76.1309 18.5684C76.1309 19.9492 75.3652 21.1113 73.957 21.1113ZM79.3438 24.9326H80.6084L84.4092 15.1709H83.1377L81.1553 20.5439L78.9883 15.1709H77.71L80.54 21.8838L79.3438 24.9326ZM87.6426 22.1162C88.9619 22.1162 90.1514 21.4189 90.1514 19.9834C90.1514 17.4062 86.3301 18.3359 86.3301 16.8594C86.3301 16.3467 86.8154 15.9775 87.5879 15.9775C88.3877 15.9775 88.8936 16.4355 89.1943 16.9824L90.0898 16.4971C89.5977 15.5879 88.7363 15.0547 87.6289 15.0547C86.3164 15.0547 85.2227 15.7246 85.2227 17.0098C85.2227 19.4639 89.0098 18.418 89.0098 20.0381C89.0098 20.6396 88.5312 21.1455 87.5879 21.1455C86.583 21.1455 86.0088 20.5166 85.7764 19.8672L84.8398 20.2773C85.1816 21.3164 86.2617 22.1162 87.6426 22.1162ZM102.606 21.7402L101.205 20.1338C101.704 19.375 102.012 18.4385 102.08 17.3926L100.952 17.2832C100.925 18.0146 100.747 18.6982 100.453 19.2793L98.5254 17.0713C99.6123 16.4424 100.59 15.7109 100.59 14.4531C100.59 13.2021 99.5098 12.2451 98.1699 12.2451C96.8369 12.2451 95.6133 13.1064 95.6133 14.46C95.6133 15.499 96.4609 16.4014 96.8643 16.8457C95.668 17.4951 94.5195 18.2812 94.5195 19.7783C94.5195 21.2754 95.8047 22.123 97.541 22.123C98.71 22.123 99.7217 21.6992 100.494 20.9746L101.786 22.4717L102.606 21.7402ZM96.7344 14.4805C96.7344 13.667 97.3701 13.1543 98.1768 13.1543C98.9971 13.1543 99.5166 13.749 99.5166 14.4736C99.5166 15.3213 98.7305 15.8408 97.7803 16.3535C97.459 15.9707 96.7344 15.1572 96.7344 14.4805ZM97.5137 21.1387C96.3789 21.1387 95.6406 20.6533 95.6406 19.7988C95.6406 18.7871 96.5498 18.1787 97.5889 17.5977L99.8174 20.1816C99.2363 20.7764 98.457 21.1387 97.5137 21.1387ZM107.699 22H113.229V20.8584H108.902V12.3408H107.699V22ZM116.716 22.1162C117.543 22.1162 118.35 21.7402 118.814 20.9609V22H119.963V15.1709H118.814V19.1084C118.814 20.3867 118.117 21.043 117.03 21.043C115.998 21.043 115.458 20.3389 115.458 19.2109V15.1709H114.31V19.416C114.33 20.8789 115.055 22.1162 116.716 22.1162ZM124.953 21.0977C123.736 20.9268 122.827 20.8516 122.827 20.1611C122.827 19.8945 122.964 19.7031 123.251 19.5664C123.654 19.7715 124.126 19.8877 124.646 19.8877C126.108 19.8877 127.277 18.958 127.277 17.5156C127.277 17.0439 127.154 16.6133 126.936 16.2578L127.872 15.4785L127.271 14.7266L126.3 15.5674C125.842 15.2393 125.254 15.0547 124.611 15.0547C123.135 15.0547 121.952 16.0391 121.952 17.4541C121.952 18.0625 122.164 18.5957 122.533 19.0127C122.075 19.3477 121.829 19.7715 121.829 20.3594C121.829 21.0361 122.171 21.4326 122.643 21.6787L121.699 22.5195C121.686 22.6084 121.679 22.6904 121.679 22.8203C121.679 24.1875 122.807 25.1719 124.816 25.1719C126.491 25.1719 127.722 24.4336 127.722 23.0254C127.722 21.5283 126.3 21.2959 124.953 21.0977ZM124.652 15.957C125.568 15.957 126.129 16.5791 126.129 17.4678C126.129 18.3291 125.575 18.9375 124.646 18.9375C123.709 18.9375 123.148 18.3291 123.148 17.4609C123.148 16.5859 123.729 15.957 124.652 15.957ZM124.81 24.2627C123.709 24.2627 122.875 23.832 122.738 22.9707L122.718 22.7656L123.36 21.9248C123.757 22.0137 124.174 22.0615 124.55 22.1094C125.801 22.2666 126.621 22.3965 126.621 23.1484C126.621 23.8594 125.91 24.2627 124.81 24.2627ZM132.09 21.0977C130.873 20.9268 129.964 20.8516 129.964 20.1611C129.964 19.8945 130.101 19.7031 130.388 19.5664C130.791 19.7715 131.263 19.8877 131.782 19.8877C133.245 19.8877 134.414 18.958 134.414 17.5156C134.414 17.0439 134.291 16.6133 134.072 16.2578L135.009 15.4785L134.407 14.7266L133.437 15.5674C132.979 15.2393 132.391 15.0547 131.748 15.0547C130.271 15.0547 129.089 16.0391 129.089 17.4541C129.089 18.0625 129.301 18.5957 129.67 19.0127C129.212 19.3477 128.966 19.7715 128.966 20.3594C128.966 21.0361 129.308 21.4326 129.779 21.6787L128.836 22.5195C128.822 22.6084 128.815 22.6904 128.815 22.8203C128.815 24.1875 129.943 25.1719 131.953 25.1719C133.628 25.1719 134.858 24.4336 134.858 23.0254C134.858 21.5283 133.437 21.2959 132.09 21.0977ZM131.789 15.957C132.705 15.957 133.266 16.5791 133.266 17.4678C133.266 18.3291 132.712 18.9375 131.782 18.9375C130.846 18.9375 130.285 18.3291 130.285 17.4609C130.285 16.5859 130.866 15.957 131.789 15.957ZM131.946 24.2627C130.846 24.2627 130.012 23.832 129.875 22.9707L129.854 22.7656L130.497 21.9248C130.894 22.0137 131.311 22.0615 131.687 22.1094C132.938 22.2666 133.758 22.3965 133.758 23.1484C133.758 23.8594 133.047 24.2627 131.946 24.2627ZM138.796 15.0547C137.545 15.0547 136.725 15.5811 136.062 16.4902L136.95 17.1328C137.36 16.4971 137.941 16.0664 138.81 16.0664C140.102 16.0664 140.539 16.6885 140.546 18.0215H138.611C136.93 18.0215 135.795 18.5615 135.795 19.9766C135.795 21.3301 136.807 22.1162 138.194 22.1162C139.131 22.1162 140.074 21.6719 140.56 20.7832L140.635 22H141.599V17.8369C141.599 16.1416 140.587 15.0547 138.796 15.0547ZM138.42 21.125C137.49 21.125 136.984 20.6807 136.984 20.0176C136.984 19.3271 137.531 18.8691 138.68 18.8691H140.546V19.3135C140.32 20.3389 139.575 21.125 138.42 21.125ZM146.418 21.0977C145.201 20.9268 144.292 20.8516 144.292 20.1611C144.292 19.8945 144.429 19.7031 144.716 19.5664C145.119 19.7715 145.591 19.8877 146.11 19.8877C147.573 19.8877 148.742 18.958 148.742 17.5156C148.742 17.0439 148.619 16.6133 148.4 16.2578L149.337 15.4785L148.735 14.7266L147.765 15.5674C147.307 15.2393 146.719 15.0547 146.076 15.0547C144.6 15.0547 143.417 16.0391 143.417 17.4541C143.417 18.0625 143.629 18.5957 143.998 19.0127C143.54 19.3477 143.294 19.7715 143.294 20.3594C143.294 21.0361 143.636 21.4326 144.107 21.6787L143.164 22.5195C143.15 22.6084 143.144 22.6904 143.144 22.8203C143.144 24.1875 144.271 25.1719 146.281 25.1719C147.956 25.1719 149.187 24.4336 149.187 23.0254C149.187 21.5283 147.765 21.2959 146.418 21.0977ZM146.117 15.957C147.033 15.957 147.594 16.5791 147.594 17.4678C147.594 18.3291 147.04 18.9375 146.11 18.9375C145.174 18.9375 144.613 18.3291 144.613 17.4609C144.613 16.5859 145.194 15.957 146.117 15.957ZM146.274 24.2627C145.174 24.2627 144.34 23.832 144.203 22.9707L144.183 22.7656L144.825 21.9248C145.222 22.0137 145.639 22.0615 146.015 22.1094C147.266 22.2666 148.086 22.3965 148.086 23.1484C148.086 23.8594 147.375 24.2627 146.274 24.2627ZM153.527 22.1162C154.642 22.1162 155.462 21.7607 156.221 20.9473L155.414 20.2432C154.847 20.8447 154.286 21.0635 153.534 21.0635C152.256 21.0635 151.565 20.2432 151.477 18.9307H156.392C156.419 18.8281 156.446 18.5547 156.446 18.3018C156.446 16.8936 155.701 15.0547 153.411 15.0547C151.319 15.0547 150.253 16.7363 150.253 18.6162C150.253 20.5371 151.367 22.1162 153.527 22.1162ZM151.477 18.083C151.606 16.8867 152.249 16.0322 153.404 16.0322C154.553 16.0322 155.154 16.8047 155.271 17.6523C155.298 17.7891 155.298 17.9326 155.298 18.083H151.477Z" fill="#222222"/>
<path d="M177.25 15.375L172 20.625L166.75 15.375" stroke="#008ECC" stroke-width="1.5" stroke-linecap="round" stroke-linejoin="round"/>
</svg>
