<svg width="82" height="18" viewBox="0 0 82 18" fill="none" xmlns="http://www.w3.org/2000/svg">
<path d="M9.33594 2.96094L5.9375 11.8281L2.52344 2.96094H1L5.39062 14H6.46875L10.8438 2.96094H9.33594ZM12.5 4.61719H13.8828V2.96094H12.5V4.61719ZM12.5312 14H13.8516V6.19531H12.5312V14ZM19.5625 14.1328C20.8359 14.1328 21.7734 13.7266 22.6406 12.7969L21.7188 11.9922C21.0703 12.6797 20.4297 12.9297 19.5703 12.9297C18.1094 12.9297 17.3203 11.9922 17.2188 10.4922H22.8359C22.8672 10.375 22.8984 10.0625 22.8984 9.77344C22.8984 8.16406 22.0469 6.0625 19.4297 6.0625C17.0391 6.0625 15.8203 7.98438 15.8203 10.1328C15.8203 12.3281 17.0938 14.1328 19.5625 14.1328ZM17.2188 9.52344C17.3672 8.15625 18.1016 7.17969 19.4219 7.17969C20.7344 7.17969 21.4219 8.0625 21.5547 9.03125C21.5859 9.1875 21.5859 9.35156 21.5859 9.52344H17.2188ZM26.0469 14H27.2656L29.2031 8.03906L31.1328 14H32.3516L34.6797 6.19531H33.2656L31.6719 11.9844L29.7891 6.19531H28.6172L26.7266 11.9922L25.1484 6.19531H23.7344L26.0469 14ZM39.3906 14H40.8906L41.8281 11.4219H46.4766L47.3984 14H48.8906L44.6875 2.96094H43.5938L39.3906 14ZM42.2578 10.2422L44.1484 4.92969L46.0469 10.2422H42.2578ZM52.0547 14.1328C52.4297 14.1328 52.8984 14.0703 53.2578 13.9922L53.25 12.875C53.0234 12.9141 52.8047 12.9375 52.6484 12.9375C52.0078 12.9375 51.875 12.5547 51.875 12.0312V2.96094H50.5469V12.3828C50.5469 13.5781 51.0156 14.1328 52.0547 14.1328ZM56.4141 14.1328C56.7891 14.1328 57.2578 14.0703 57.6172 13.9922L57.6094 12.875C57.3828 12.9141 57.1641 12.9375 57.0078 12.9375C56.3672 12.9375 56.2344 12.5547 56.2344 12.0312V2.96094H54.9062V12.3828C54.9062 13.5781 55.375 14.1328 56.4141 14.1328Z" fill="#222222"/>
<path d="M70.375 3.75L75.625 9L70.375 14.25" stroke="#008ECC" stroke-width="1.5" stroke-linecap="round" stroke-linejoin="round"/>
</svg>
